<mxfile host="www.draw.io" modified="2019-11-18T10:57:43.573Z" agent="Mozilla/5.0 (Windows NT 10.0; Win64; x64) AppleWebKit/537.36 (KHTML, like Gecko) Chrome/78.0.3904.97 Safari/537.36" etag="1F27LtvyY2-bt3uyJD3F" version="12.2.6" type="github" pages="1">
  <diagram id="6yheaKTVq3Evy7ZbErmM" name="Page-1">
    <mxGraphModel dx="1422" dy="745" grid="1" gridSize="10" guides="1" tooltips="1" connect="1" arrows="1" fold="1" page="1" pageScale="1" pageWidth="850" pageHeight="1100" math="0" shadow="0">
      <root>
        <mxCell id="0"/>
        <mxCell id="1" parent="0"/>
        <mxCell id="gZYcXTagrQoSSqyOM7qE-3" value="Employee" style="swimlane;fontStyle=1;align=center;verticalAlign=top;childLayout=stackLayout;horizontal=1;startSize=26;horizontalStack=0;resizeParent=1;resizeParentMax=0;resizeLast=0;collapsible=1;marginBottom=0;" vertex="1" parent="1">
          <mxGeometry x="345" y="100" width="160" height="86" as="geometry"/>
        </mxCell>
        <mxCell id="gZYcXTagrQoSSqyOM7qE-4" value="+ salary: int" style="text;strokeColor=none;fillColor=none;align=left;verticalAlign=top;spacingLeft=4;spacingRight=4;overflow=hidden;rotatable=0;points=[[0,0.5],[1,0.5]];portConstraint=eastwest;" vertex="1" parent="gZYcXTagrQoSSqyOM7qE-3">
          <mxGeometry y="26" width="160" height="26" as="geometry"/>
        </mxCell>
        <mxCell id="gZYcXTagrQoSSqyOM7qE-5" value="" style="line;strokeWidth=1;fillColor=none;align=left;verticalAlign=middle;spacingTop=-1;spacingLeft=3;spacingRight=3;rotatable=0;labelPosition=right;points=[];portConstraint=eastwest;" vertex="1" parent="gZYcXTagrQoSSqyOM7qE-3">
          <mxGeometry y="52" width="160" height="8" as="geometry"/>
        </mxCell>
        <mxCell id="gZYcXTagrQoSSqyOM7qE-6" value="+" style="text;strokeColor=none;fillColor=none;align=left;verticalAlign=top;spacingLeft=4;spacingRight=4;overflow=hidden;rotatable=0;points=[[0,0.5],[1,0.5]];portConstraint=eastwest;" vertex="1" parent="gZYcXTagrQoSSqyOM7qE-3">
          <mxGeometry y="60" width="160" height="26" as="geometry"/>
        </mxCell>
        <mxCell id="gZYcXTagrQoSSqyOM7qE-11" style="edgeStyle=orthogonalEdgeStyle;rounded=0;orthogonalLoop=1;jettySize=auto;html=1;entryX=0.5;entryY=0.962;entryDx=0;entryDy=0;entryPerimeter=0;" edge="1" parent="1" source="gZYcXTagrQoSSqyOM7qE-7" target="gZYcXTagrQoSSqyOM7qE-6">
          <mxGeometry relative="1" as="geometry"/>
        </mxCell>
        <mxCell id="gZYcXTagrQoSSqyOM7qE-7" value="Programmer" style="swimlane;fontStyle=1;align=center;verticalAlign=top;childLayout=stackLayout;horizontal=1;startSize=26;horizontalStack=0;resizeParent=1;resizeParentMax=0;resizeLast=0;collapsible=1;marginBottom=0;" vertex="1" parent="1">
          <mxGeometry x="345" y="260" width="160" height="86" as="geometry"/>
        </mxCell>
        <mxCell id="gZYcXTagrQoSSqyOM7qE-8" value="+ bonus: int" style="text;strokeColor=none;fillColor=none;align=left;verticalAlign=top;spacingLeft=4;spacingRight=4;overflow=hidden;rotatable=0;points=[[0,0.5],[1,0.5]];portConstraint=eastwest;" vertex="1" parent="gZYcXTagrQoSSqyOM7qE-7">
          <mxGeometry y="26" width="160" height="26" as="geometry"/>
        </mxCell>
        <mxCell id="gZYcXTagrQoSSqyOM7qE-9" value="" style="line;strokeWidth=1;fillColor=none;align=left;verticalAlign=middle;spacingTop=-1;spacingLeft=3;spacingRight=3;rotatable=0;labelPosition=right;points=[];portConstraint=eastwest;" vertex="1" parent="gZYcXTagrQoSSqyOM7qE-7">
          <mxGeometry y="52" width="160" height="8" as="geometry"/>
        </mxCell>
        <mxCell id="gZYcXTagrQoSSqyOM7qE-10" value="+ " style="text;strokeColor=none;fillColor=none;align=left;verticalAlign=top;spacingLeft=4;spacingRight=4;overflow=hidden;rotatable=0;points=[[0,0.5],[1,0.5]];portConstraint=eastwest;" vertex="1" parent="gZYcXTagrQoSSqyOM7qE-7">
          <mxGeometry y="60" width="160" height="26" as="geometry"/>
        </mxCell>
        <mxCell id="gZYcXTagrQoSSqyOM7qE-13" value="Account" style="swimlane;fontStyle=1;align=center;verticalAlign=top;childLayout=stackLayout;horizontal=1;startSize=26;horizontalStack=0;resizeParent=1;resizeParentMax=0;resizeLast=0;collapsible=1;marginBottom=0;" vertex="1" parent="1">
          <mxGeometry x="345" y="490" width="170" height="100" as="geometry"/>
        </mxCell>
        <mxCell id="gZYcXTagrQoSSqyOM7qE-14" value="+ accountNumber: long&#xa;+ balance: double" style="text;strokeColor=none;fillColor=none;align=left;verticalAlign=top;spacingLeft=4;spacingRight=4;overflow=hidden;rotatable=0;points=[[0,0.5],[1,0.5]];portConstraint=eastwest;" vertex="1" parent="gZYcXTagrQoSSqyOM7qE-13">
          <mxGeometry y="26" width="170" height="34" as="geometry"/>
        </mxCell>
        <mxCell id="gZYcXTagrQoSSqyOM7qE-15" value="" style="line;strokeWidth=1;fillColor=none;align=left;verticalAlign=middle;spacingTop=-1;spacingLeft=3;spacingRight=3;rotatable=0;labelPosition=right;points=[];portConstraint=eastwest;" vertex="1" parent="gZYcXTagrQoSSqyOM7qE-13">
          <mxGeometry y="60" width="170" height="8" as="geometry"/>
        </mxCell>
        <mxCell id="gZYcXTagrQoSSqyOM7qE-16" value="+ setter &amp; getter " style="text;strokeColor=none;fillColor=none;align=left;verticalAlign=top;spacingLeft=4;spacingRight=4;overflow=hidden;rotatable=0;points=[[0,0.5],[1,0.5]];portConstraint=eastwest;" vertex="1" parent="gZYcXTagrQoSSqyOM7qE-13">
          <mxGeometry y="68" width="170" height="32" as="geometry"/>
        </mxCell>
        <mxCell id="gZYcXTagrQoSSqyOM7qE-17" style="edgeStyle=orthogonalEdgeStyle;rounded=0;orthogonalLoop=1;jettySize=auto;html=1;entryX=0.512;entryY=1.017;entryDx=0;entryDy=0;entryPerimeter=0;" edge="1" parent="1" source="gZYcXTagrQoSSqyOM7qE-18" target="gZYcXTagrQoSSqyOM7qE-16">
          <mxGeometry relative="1" as="geometry">
            <mxPoint x="425" y="620" as="targetPoint"/>
          </mxGeometry>
        </mxCell>
        <mxCell id="gZYcXTagrQoSSqyOM7qE-18" value="CheckingAccount" style="swimlane;fontStyle=1;align=center;verticalAlign=top;childLayout=stackLayout;horizontal=1;startSize=26;horizontalStack=0;resizeParent=1;resizeParentMax=0;resizeLast=0;collapsible=1;marginBottom=0;" vertex="1" parent="1">
          <mxGeometry x="130" y="680" width="170" height="90" as="geometry"/>
        </mxCell>
        <mxCell id="gZYcXTagrQoSSqyOM7qE-19" value="+ " style="text;strokeColor=none;fillColor=none;align=left;verticalAlign=top;spacingLeft=4;spacingRight=4;overflow=hidden;rotatable=0;points=[[0,0.5],[1,0.5]];portConstraint=eastwest;" vertex="1" parent="gZYcXTagrQoSSqyOM7qE-18">
          <mxGeometry y="26" width="170" height="26" as="geometry"/>
        </mxCell>
        <mxCell id="gZYcXTagrQoSSqyOM7qE-20" value="" style="line;strokeWidth=1;fillColor=none;align=left;verticalAlign=middle;spacingTop=-1;spacingLeft=3;spacingRight=3;rotatable=0;labelPosition=right;points=[];portConstraint=eastwest;" vertex="1" parent="gZYcXTagrQoSSqyOM7qE-18">
          <mxGeometry y="52" width="170" height="8" as="geometry"/>
        </mxCell>
        <mxCell id="gZYcXTagrQoSSqyOM7qE-21" value="+ Withdraw(void): long" style="text;strokeColor=none;fillColor=none;align=left;verticalAlign=top;spacingLeft=4;spacingRight=4;overflow=hidden;rotatable=0;points=[[0,0.5],[1,0.5]];portConstraint=eastwest;" vertex="1" parent="gZYcXTagrQoSSqyOM7qE-18">
          <mxGeometry y="60" width="170" height="30" as="geometry"/>
        </mxCell>
        <mxCell id="gZYcXTagrQoSSqyOM7qE-26" style="edgeStyle=orthogonalEdgeStyle;rounded=0;orthogonalLoop=1;jettySize=auto;html=1;entryX=0.5;entryY=1;entryDx=0;entryDy=0;entryPerimeter=0;" edge="1" parent="1" source="gZYcXTagrQoSSqyOM7qE-22" target="gZYcXTagrQoSSqyOM7qE-16">
          <mxGeometry relative="1" as="geometry"/>
        </mxCell>
        <mxCell id="gZYcXTagrQoSSqyOM7qE-22" value="CurrentAccount" style="swimlane;fontStyle=1;align=center;verticalAlign=top;childLayout=stackLayout;horizontal=1;startSize=26;horizontalStack=0;resizeParent=1;resizeParentMax=0;resizeLast=0;collapsible=1;marginBottom=0;" vertex="1" parent="1">
          <mxGeometry x="590" y="680" width="180" height="98" as="geometry"/>
        </mxCell>
        <mxCell id="gZYcXTagrQoSSqyOM7qE-23" value="+ minBalance : long" style="text;strokeColor=none;fillColor=none;align=left;verticalAlign=top;spacingLeft=4;spacingRight=4;overflow=hidden;rotatable=0;points=[[0,0.5],[1,0.5]];portConstraint=eastwest;" vertex="1" parent="gZYcXTagrQoSSqyOM7qE-22">
          <mxGeometry y="26" width="180" height="24" as="geometry"/>
        </mxCell>
        <mxCell id="gZYcXTagrQoSSqyOM7qE-24" value="" style="line;strokeWidth=1;fillColor=none;align=left;verticalAlign=middle;spacingTop=-1;spacingLeft=3;spacingRight=3;rotatable=0;labelPosition=right;points=[];portConstraint=eastwest;" vertex="1" parent="gZYcXTagrQoSSqyOM7qE-22">
          <mxGeometry y="50" width="180" height="8" as="geometry"/>
        </mxCell>
        <mxCell id="gZYcXTagrQoSSqyOM7qE-25" value="+ setter &amp; getter&#xa;+ Withdraw(void): long" style="text;strokeColor=none;fillColor=none;align=left;verticalAlign=top;spacingLeft=4;spacingRight=4;overflow=hidden;rotatable=0;points=[[0,0.5],[1,0.5]];portConstraint=eastwest;" vertex="1" parent="gZYcXTagrQoSSqyOM7qE-22">
          <mxGeometry y="58" width="180" height="40" as="geometry"/>
        </mxCell>
        <mxCell id="gZYcXTagrQoSSqyOM7qE-27" value="FacultyMember" style="swimlane;fontStyle=1;align=center;verticalAlign=top;childLayout=stackLayout;horizontal=1;startSize=26;horizontalStack=0;resizeParent=1;resizeParentMax=0;resizeLast=0;collapsible=1;marginBottom=0;" vertex="1" parent="1">
          <mxGeometry x="610" y="100" width="190" height="170" as="geometry"/>
        </mxCell>
        <mxCell id="gZYcXTagrQoSSqyOM7qE-28" value="- salary: int&#xa;- creditHours: float" style="text;strokeColor=none;fillColor=none;align=left;verticalAlign=top;spacingLeft=4;spacingRight=4;overflow=hidden;rotatable=0;points=[[0,0.5],[1,0.5]];portConstraint=eastwest;" vertex="1" parent="gZYcXTagrQoSSqyOM7qE-27">
          <mxGeometry y="26" width="190" height="54" as="geometry"/>
        </mxCell>
        <mxCell id="gZYcXTagrQoSSqyOM7qE-29" value="" style="line;strokeWidth=1;fillColor=none;align=left;verticalAlign=middle;spacingTop=-1;spacingLeft=3;spacingRight=3;rotatable=0;labelPosition=right;points=[];portConstraint=eastwest;" vertex="1" parent="gZYcXTagrQoSSqyOM7qE-27">
          <mxGeometry y="80" width="190" height="8" as="geometry"/>
        </mxCell>
        <mxCell id="gZYcXTagrQoSSqyOM7qE-30" value="+ setters and getters (C# way)&#xa;+ calculateRatio(void): void" style="text;strokeColor=none;fillColor=none;align=left;verticalAlign=top;spacingLeft=4;spacingRight=4;overflow=hidden;rotatable=0;points=[[0,0.5],[1,0.5]];portConstraint=eastwest;" vertex="1" parent="gZYcXTagrQoSSqyOM7qE-27">
          <mxGeometry y="88" width="190" height="82" as="geometry"/>
        </mxCell>
      </root>
    </mxGraphModel>
  </diagram>
</mxfile>
